<?xml version="1.0" encoding="utf-8"?>
<!-- Generator: Adobe Illustrator 21.0.0, SVG Export Plug-In . SVG Version: 6.00 Build 0)  -->
<svg version="1.1" id="Layer_1" xmlns="http://www.w3.org/2000/svg" xmlns:xlink="http://www.w3.org/1999/xlink" x="0px" y="0px"
	 viewBox="0 0 220 36" style="enable-background:new 0 0 220 36;" xml:space="preserve">
<style type="text/css">
	.st0{fill:#3A3A3A;}
	.st1{fill:#F15F64;}
	.st2{fill:#B23CA3;}
</style>
<g>
	<path class="st0" d="M56.8,16.3c0,3.5-2.6,5.6-6.8,5.6h-2.7v4h-4.3V10.6h7C54.2,10.6,56.8,12.8,56.8,16.3z M52.5,16.3
		c0-1.4-0.9-2.2-2.7-2.2h-2.4v4.5h2.4C51.6,18.5,52.5,17.7,52.5,16.3z"/>
	<path class="st0" d="M58.9,9.7H63v16.1h-4.1V9.7z"/>
	<path class="st0" d="M78.1,14.1v11.8h-3.9v-1.3c-0.9,1-2.2,1.5-3.5,1.5c-2.9,0-5-1.7-5-5.4v-6.6h4.1V20c0,1.8,0.7,2.5,2,2.5
		c1.2,0,2.2-0.8,2.2-2.8v-5.7H78.1z"/>
	<path class="st0" d="M93.4,14.1v9.6c0,4.5-2.5,6.6-6.9,6.6c-2.3,0-4.4-0.5-5.8-1.5l1.5-2.9c1,0.8,2.6,1.3,4,1.3
		c2.2,0,3.2-1,3.2-2.8v-0.4c-0.8,0.9-2,1.4-3.5,1.4c-3.1,0-5.8-2.2-5.8-5.7c0-3.5,2.7-5.7,5.8-5.7c1.6,0,2.9,0.5,3.7,1.6v-1.4H93.4z
		 M89.3,19.6c0-1.4-1.1-2.4-2.6-2.4s-2.6,1-2.6,2.4c0,1.4,1.1,2.4,2.6,2.4S89.3,21,89.3,19.6z"/>
	<path class="st0" d="M95.6,10.6c0-1.2,1-2.2,2.5-2.2c1.5,0,2.5,0.9,2.5,2.1c0,1.3-1,2.3-2.5,2.3C96.6,12.8,95.6,11.8,95.6,10.6z
		 M96.1,14.1h4.1v11.8h-4.1V14.1z"/>
	<path class="st0" d="M115.4,19.1v6.7h-4.1v-6.1c0-1.7-0.7-2.4-1.9-2.4c-1.3,0-2.3,0.8-2.3,2.8v5.7h-4.1V14.1h3.9v1.3
		c0.9-1,2.3-1.5,3.7-1.5C113.3,13.9,115.4,15.5,115.4,19.1z"/>
	<path class="st1" d="M132,25.9l0-8.1l-3.9,6.6h-1.9l-3.9-6.4v7.9h-4V10.6h3.5l5.3,8.8l5.2-8.8h3.5l0,15.2H132z"/>
	<path class="st1" d="M149.8,19.3v6.5h-3.8v-1.5c-0.6,1.1-1.8,1.7-3.5,1.7c-2.8,0-4.4-1.6-4.4-3.6c0-2.2,1.6-3.5,5.2-3.5h2.3
		c-0.1-1.2-0.9-1.9-2.5-1.9c-1.1,0-2.4,0.4-3.2,1l-1.4-2.8c1.3-0.9,3.3-1.4,5.2-1.4C147.6,13.9,149.8,15.6,149.8,19.3z M145.7,22.1
		v-1h-1.8c-1.3,0-1.8,0.5-1.8,1.2c0,0.7,0.6,1.2,1.5,1.2C144.5,23.5,145.3,23,145.7,22.1z"/>
	<path class="st1" d="M164.9,19.1v6.7h-4.1v-6.1c0-1.7-0.7-2.4-1.9-2.4c-1.3,0-2.3,0.8-2.3,2.8v5.7h-4.1V14.1h3.9v1.3
		c0.9-1,2.3-1.5,3.7-1.5C162.8,13.9,164.9,15.5,164.9,19.1z"/>
	<path class="st1" d="M178.6,19.3v6.5h-3.8v-1.5c-0.6,1.1-1.8,1.7-3.5,1.7c-2.8,0-4.4-1.6-4.4-3.6c0-2.2,1.6-3.5,5.2-3.5h2.3
		c-0.1-1.2-0.9-1.9-2.5-1.9c-1.1,0-2.4,0.4-3.2,1l-1.4-2.8c1.3-0.9,3.3-1.4,5.2-1.4C176.4,13.9,178.6,15.6,178.6,19.3z M174.4,22.1
		v-1h-1.8c-1.3,0-1.8,0.5-1.8,1.2c0,0.7,0.6,1.2,1.5,1.2C173.3,23.5,174.1,23,174.4,22.1z"/>
	<path class="st1" d="M194,14.1v9.6c0,4.5-2.5,6.6-6.9,6.6c-2.3,0-4.4-0.5-5.8-1.5l1.5-2.9c1,0.8,2.6,1.3,4,1.3c2.2,0,3.2-1,3.2-2.8
		v-0.4c-0.8,0.9-2,1.4-3.5,1.4c-3.1,0-5.8-2.2-5.8-5.7c0-3.5,2.7-5.7,5.8-5.7c1.6,0,2.9,0.5,3.7,1.6v-1.4H194z M189.9,19.6
		c0-1.4-1.1-2.4-2.6-2.4s-2.6,1-2.6,2.4c0,1.4,1.1,2.4,2.6,2.4S189.9,21,189.9,19.6z"/>
	<path class="st1" d="M208.7,21h-8.6c0.3,1.2,1.4,1.9,2.9,1.9c1.2,0,1.9-0.3,2.7-1l2.2,2.3c-1.1,1.3-2.8,1.9-5,1.9
		c-4.2,0-6.9-2.6-6.9-6.1c0-3.5,2.8-6.1,6.5-6.1c3.5,0,6.3,2.2,6.3,6.1C208.7,20.3,208.7,20.7,208.7,21z M200,18.8h4.8
		c-0.2-1.2-1.1-2-2.4-2C201.2,16.8,200.3,17.6,200,18.8z"/>
	<path class="st1" d="M218.5,13.9v3.7c-0.4,0-0.6-0.1-0.9-0.1c-1.7,0-2.8,0.8-2.8,2.9v5.4h-4.1V14.1h3.9v1.4
		C215.4,14.4,216.8,13.9,218.5,13.9z"/>
</g>
<g>
	<g>
		<g>
			<g>
				<path class="st2" d="M34.8,35.3H9.7c-5.2,0-9.5-4.2-9.5-9.5V0.7h25.1c5.2,0,9.5,4.2,9.5,9.5V35.3z M3.1,3.6v22.2
					c0,3.6,3,6.6,6.6,6.6h22.2V10.2c0-3.6-3-6.6-6.6-6.6H3.1z"/>
			</g>
		</g>
	</g>
	<g>
		<g>
			<path class="st1" d="M9.2,21.5v-7c0-3.7,3-6.7,6.7-6.7h3.6v20.4h-3.6C12.2,28.2,9.2,25.2,9.2,21.5z"/>
			<g>
				<path class="st1" d="M21,15.2v-4h6.2c1.1,0,2,0.9,2,2v0c0,1.1-0.9,2-2,2H21z"/>
				<path class="st1" d="M21,24.8v-4h6.2c1.1,0,2,0.9,2,2v0c0,1.1-0.9,2-2,2H21z"/>
			</g>
			<path class="st1" d="M5.9,18.6v-1.3c0-0.7,0.6-1.2,1.2-1.2h6c0.7,0,1.2,0.6,1.2,1.2v1.3c0,0.7-0.6,1.2-1.2,1.2h-6
				C6.4,19.9,5.9,19.3,5.9,18.6z"/>
		</g>
	</g>
</g>
</svg>
