<?xml version="1.0" encoding="utf-8"?>
<!-- Generator: Adobe Illustrator 24.0.1, SVG Export Plug-In . SVG Version: 6.00 Build 0)  -->
<svg version="1.1" id="Layer_1" xmlns="http://www.w3.org/2000/svg" xmlns:xlink="http://www.w3.org/1999/xlink" x="0px" y="0px"
	 viewBox="0 0 240 36" style="enable-background:new 0 0 240 36;" xml:space="preserve">
<style type="text/css">
	.st0{fill:#B13AA2;}
	.st1{fill:#F9B73F;}
	.st2{fill:#97C223;}
	.st3{fill:#E51A1A;}
	.st4{fill:#25BBEF;}
	.st5{fill:#3A3A3A;}
	.st6{fill:#F15F64;}
</style>
<g>
	<g>
		<g>
			<path class="st0" d="M35,35H9.9c-5.2,0-9.5-4.2-9.5-9.5V0.4h25.1c5.2,0,9.5,4.2,9.5,9.5V35z M3.3,3.3v22.2c0,3.6,3,6.6,6.6,6.6
				h22.2V9.9c0-3.6-3-6.6-6.6-6.6H3.3z"/>
		</g>
	</g>
	<g>
		<g>
			<rect x="5.8" y="5.8" class="st1" width="11.1" height="11.1"/>
		</g>
	</g>
	<g>
		<g>
			<path class="st2" d="M24,16.9L24,16.9c-3,0-5.5-2.5-5.5-5.5v0c0-3,2.5-5.5,5.5-5.5h0c3,0,5.5,2.5,5.5,5.5v0
				C29.6,14.4,27.1,16.9,24,16.9z"/>
		</g>
	</g>
	<g>
		<g>
			<path class="st3" d="M11.4,29.6L11.4,29.6c-3,0-5.5-2.5-5.5-5.5v0c0-3,2.5-5.5,5.5-5.5h0c3,0,5.5,2.5,5.5,5.5v0
				C16.9,27.1,14.4,29.6,11.4,29.6z"/>
		</g>
	</g>
	<g>
		<g>
			<rect x="18.5" y="18.5" class="st4" width="11.1" height="11.1"/>
		</g>
	</g>
</g>
<g>
	<path class="st5" d="M58.3,14.8c0,4.2-2.9,6.8-7.5,6.8h-3.5v5.2h-4V7.9h7.5C55.4,7.9,58.3,10.5,58.3,14.8z M54.2,14.8
		c0-2.1-1.2-3.3-3.7-3.3h-3.3V18h3.3C53,18,54.2,16.8,54.2,14.8z"/>
	<path class="st5" d="M68.5,12.1v3.9c-0.3,0-0.6-0.1-0.9-0.1c-2.1,0-3.5,1.3-3.5,4v6.8h-3.8V12.3h3.7v1.9
		C64.8,12.8,66.4,12.1,68.5,12.1z"/>
	<path class="st5" d="M69,19.5c0-4.3,3.1-7.4,7.3-7.4c4.2,0,7.3,3.1,7.3,7.4c0,4.3-3.1,7.4-7.3,7.4C72.1,26.9,69,23.8,69,19.5z
		 M79.7,19.5c0-2.5-1.5-4-3.4-4c-1.9,0-3.4,1.5-3.4,4c0,2.5,1.5,4,3.4,4C78.3,23.5,79.7,22,79.7,19.5z"/>
	<path class="st5" d="M99.1,6.8v19.9h-3.7V25c-1,1.3-2.4,1.9-4.1,1.9c-3.7,0-6.6-2.9-6.6-7.4c0-4.5,2.9-7.4,6.6-7.4
		c1.6,0,3,0.6,4,1.7v-7H99.1z M95.3,19.5c0-2.5-1.5-4-3.4-4c-1.9,0-3.4,1.5-3.4,4c0,2.5,1.5,4,3.4,4C93.8,23.5,95.3,22,95.3,19.5z"
		/>
	<path class="st5" d="M115.4,12.3v14.4h-3.7V25c-1,1.3-2.5,1.9-4.1,1.9c-3.3,0-5.7-2-5.7-6.5v-8.1h3.8v7.5c0,2.4,1,3.5,2.7,3.5
		c1.8,0,3.1-1.2,3.1-3.9v-7.1H115.4z"/>
	<path class="st5" d="M117.4,19.5c0-4.3,3.1-7.4,7.4-7.4c2.8,0,5,1.3,5.9,3.7l-3,1.7c-0.7-1.4-1.8-2-3-2c-1.9,0-3.5,1.5-3.5,4
		c0,2.5,1.5,4,3.5,4c1.2,0,2.3-0.6,3-2l3,1.8c-1,2.3-3.2,3.6-5.9,3.6C120.4,26.9,117.4,23.8,117.4,19.5z"/>
	<path class="st5" d="M141.1,26c-0.8,0.6-1.9,0.9-3.1,0.9c-3.1,0-5-1.7-5-5.2v-5.9h-2v-3.2h2V9.1h3.8v3.5h3.3v3.2h-3.3v5.9
		c0,1.2,0.6,1.9,1.7,1.9c0.6,0,1.1-0.2,1.6-0.5L141.1,26z"/>
	<path class="st6" d="M143.6,7.9h4v15.2h8.7v3.5h-12.7V7.9z"/>
	<path class="st6" d="M169.5,18.5v8.2h-3.6v-1.8c-0.7,1.3-2.1,2-4,2c-3.1,0-5-1.9-5-4.4c0-2.5,1.7-4.3,5.7-4.3h3.1
		c0-1.8-1-2.8-3.1-2.8c-1.4,0-2.9,0.5-3.8,1.3l-1.4-2.9c1.5-1.1,3.6-1.7,5.7-1.7C167.1,12.1,169.5,14.1,169.5,18.5z M165.6,22.2
		v-1.5H163c-1.8,0-2.4,0.7-2.4,1.7c0,1,0.8,1.7,2.2,1.7C164.1,24.1,165.2,23.5,165.6,22.2z"/>
	<path class="st6" d="M185.3,12.3l-6,15.3c-1.3,3.5-3.1,4.5-5.5,4.5c-1.4,0-2.8-0.5-3.7-1.3l1.4-3c0.6,0.6,1.4,0.9,2.2,0.9
		c1.1,0,1.7-0.5,2.2-1.8l0-0.1l-5.7-14.5h4l3.7,9.8l3.7-9.8H185.3z"/>
	<path class="st6" d="M184.9,19.5c0-4.3,3.1-7.4,7.3-7.4c4.2,0,7.3,3.1,7.3,7.4c0,4.3-3.1,7.4-7.3,7.4
		C188,26.9,184.9,23.8,184.9,19.5z M195.6,19.5c0-2.5-1.5-4-3.4-4s-3.4,1.5-3.4,4c0,2.5,1.5,4,3.4,4S195.6,22,195.6,19.5z"/>
	<path class="st6" d="M214.8,12.3v14.4h-3.7V25c-1,1.3-2.5,1.9-4.1,1.9c-3.3,0-5.7-2-5.7-6.5v-8.1h3.8v7.5c0,2.4,1,3.5,2.7,3.5
		c1.8,0,3.1-1.2,3.1-3.9v-7.1H214.8z"/>
	<path class="st6" d="M226.3,26c-0.8,0.6-1.9,0.9-3.1,0.9c-3.1,0-5-1.7-5-5.2v-5.9h-2v-3.2h2V9.1h3.8v3.5h3.3v3.2H222v5.9
		c0,1.2,0.6,1.9,1.7,1.9c0.6,0,1.1-0.2,1.6-0.5L226.3,26z"/>
	<path class="st6" d="M226.6,25.4l1.3-3c1.2,0.8,3,1.4,4.6,1.4c1.8,0,2.4-0.5,2.4-1.3c0-2.4-8,0.1-8-5.7c0-2.7,2.3-4.7,6.1-4.7
		c1.8,0,3.8,0.5,5.1,1.3l-1.3,3c-1.3-0.8-2.6-1.1-3.8-1.1c-1.7,0-2.5,0.6-2.5,1.3c0,2.5,8,0.1,8,5.8c0,2.7-2.3,4.6-6.3,4.6
		C230.1,26.9,227.8,26.3,226.6,25.4z"/>
</g>
</svg>
